# File created by Blade
# Date/Time:  Wed Jan 21 17:34:04 2015
# Frame Rate: 120.000 fps
#------------------------------------------------------
:FULLY-SPECIFIED
:DEGREES
1017
root 19.719035 5.460861 -20.224737 -172.229041 -30.954722 -142.236665
Spine -19.718940 -6.496733 41.969251
Head -14.827278 -15.867701 3.750458
LeftShoulder -10.419414 -15.066743 8.277186
LeftArm -22.706139 0.827539 -83.770671
LeftForeArm 11.442806 -0.000000 -2.667519
LeftHand 8.782559 0.000000 -4.006096
LeftHandThumb1 -26.253704 0.000000 33.147579
RightShoulder -29.733815 -13.899407 10.236385
RightArm -43.450123 74.535230 22.546886
RightForeArm 7.602529 0.000000 118.229227
RightHand -3.628640 0.000000 -9.273601
RightHandThumb1 -24.326973 -0.000000 -32.862282
LeftUpLeg -99.526983 -23.539941 -52.476544
LeftLeg 136.797428 -0.000000 -0.000000
LeftFoot 29.514300 19.809000 5.771635
LeftToeBase 25.161077 -0.000000 -0.000000
RightUpLeg 15.459445 41.319222 -14.606147
RightLeg 131.859224 -0.000000 -0.000000
RightFoot 45.212995 -19.540926 -16.932840
RightToeBase 19.948969 -0.000000 -0.000000
1018
root 19.719639 5.460786 -20.225093 -172.225282 -30.953770 -142.230154
Spine -19.694967 -6.480611 41.973571
Head -14.873413 -15.881957 3.734125
LeftShoulder -10.422690 -15.101175 8.274545
LeftArm -22.735315 0.914668 -83.798492
LeftForeArm 11.364503 -0.000000 -2.644421
LeftHand 8.777801 -0.000000 -4.026706
LeftHandThumb1 -26.253704 0.000000 33.147579
RightShoulder -29.752142 -13.870552 10.219561
RightArm -43.533147 74.555965 22.410486
RightForeArm 7.602274 -0.000000 118.089606
RightHand -3.631379 -0.000000 -9.267574
RightHandThumb1 -24.326973 -0.000000 -32.862282
LeftUpLeg -99.534800 -23.548039 -52.472139
LeftLeg 136.797824 -0.000000 -0.000000
LeftFoot 29.538531 19.823396 5.790355
LeftToeBase 25.140877 -0.000000 -0.000000
RightUpLeg 15.449514 41.295238 -14.606101
RightLeg 131.798888 -0.000000 -0.000000
RightFoot 45.222499 -19.516167 -16.937673
RightToeBase 19.788151 -0.000000 -0.000000
1019
root 19.720496 5.460507 -20.225264 -172.222526 -30.957687 -142.221626
Spine -19.674288 -6.482389 41.978178
Head -14.901812 -15.852685 3.726036
LeftShoulder -10.453629 -15.115716 8.292526
LeftArm -22.723506 0.977213 -83.827817
LeftForeArm 11.306796 0.000000 -2.665135
LeftHand 8.810378 -0.000000 -4.017131
LeftHandThumb1 -26.253704 0.000000 33.147579
RightShoulder -29.747151 -13.884384 10.216349
RightArm -43.593854 74.627855 22.307102
RightForeArm 7.580437 -0.000000 117.953081
RightHand -3.631993 0.000000 -9.194460
RightHandThumb1 -24.326973 -0.000000 -32.862282
LeftUpLeg -99.541134 -23.554310 -52.459109
LeftLeg 136.804951 -0.000000 -0.000000
LeftFoot 29.523989 19.772521 5.820273
LeftToeBase 25.097341 -0.000000 -0.000000
RightUpLeg 15.440491 41.275304 -14.604968
RightLeg 131.736799 -0.000000 -0.000000
RightFoot 45.196238 -19.426187 -16.955919
RightToeBase 19.828422 -0.000000 -0.000000
1020
root 19.721965 5.460254 -20.226131 -172.218277 -30.962119 -142.220318
Spine -19.649784 -6.487259 41.972211
Head -14.941862 -15.817276 3.706622
LeftShoulder -10.471895 -15.128379 8.300006
LeftArm -22.725418 1.006304 -83.833028
LeftForeArm 11.301010 -0.000000 -2.659663
LeftHand 8.819587 -0.000000 -4.018867
LeftHandThumb1 -26.253704 0.000000 33.147579
RightShoulder -29.749230 -13.855026 10.206708
RightArm -43.644849 74.641202 22.199369
RightForeArm 7.593138 -0.000000 117.812737
RightHand -3.599779 -0.000000 -9.171020
RightHandThumb1 -24.326973 -0.000000 -32.862282
LeftUpLeg -99.543520 -23.563181 -52.461387
LeftLeg 136.809315 -0.000000 -0.000000
LeftFoot 29.524912 19.791488 5.827914
LeftToeBase 25.182121 -0.000000 -0.000000
RightUpLeg 15.429610 41.244954 -14.608001
RightLeg 131.666015 -0.000000 -0.000000
RightFoot 45.231966 -19.541807 -16.865276
RightToeBase 19.716472 -0.000000 -0.000000
1021
root 19.722600 5.458975 -20.227677 -172.216669 -30.969450 -142.218285
Spine -19.637515 -6.487239 41.968512
Head -14.967163 -15.860591 3.733541
LeftShoulder -10.476868 -15.112818 8.303288
LeftArm -22.702322 1.014770 -83.839334
LeftForeArm 11.289321 -0.000000 -2.657882
LeftHand 8.806719 -0.000000 -3.998462
LeftHandThumb1 -26.253704 0.000000 33.147579
RightShoulder -29.750152 -13.834842 10.193655
RightArm -43.765311 74.660402 22.017351
RightForeArm 7.678141 -0.000000 117.685813
RightHand -3.583945 0.000000 -9.142760
RightHandThumb1 -24.326973 -0.000000 -32.862282
LeftUpLeg -99.546187 -23.570864 -52.456190
LeftLeg 136.811965 -0.000000 -0.000000
LeftFoot 29.554771 19.771742 5.841486
LeftToeBase 25.239474 -0.000000 -0.000000
RightUpLeg 15.432404 41.216639 -14.606164
RightLeg 131.590693 -0.000000 -0.000000
RightFoot 45.236808 -19.500473 -16.822768
RightToeBase 19.665124 -0.000000 -0.000000
1022
root 19.723357 5.458603 -20.228418 -172.211400 -30.975529 -142.216107
Spine -19.611843 -6.497655 41.969274
Head -15.007036 -15.817029 3.718318
LeftShoulder -10.512986 -15.124707 8.314248
LeftArm -22.703494 1.019886 -83.837455
LeftForeArm 11.293880 0.000000 -2.642181
LeftHand 8.830408 -0.000000 -3.980703
LeftHandThumb1 -26.253704 0.000000 33.147579
RightShoulder -29.727299 -13.766560 10.169516
RightArm -43.962817 74.629995 21.722387
RightForeArm 7.784959 -0.000000 117.528988
RightHand -3.625001 -0.000000 -9.129758
RightHandThumb1 -24.326973 -0.000000 -32.862282
LeftUpLeg -99.545496 -23.577784 -52.454948
LeftLeg 136.821760 -0.000000 -0.000000
LeftFoot 29.533400 19.722589 5.885895
LeftToeBase 25.222084 -0.000000 -0.000000
RightUpLeg 15.429704 41.200930 -14.603114
RightLeg 131.516954 -0.000000 -0.000000
RightFoot 45.247043 -19.471949 -16.778794
RightToeBase 19.685941 -0.000000 -0.000000
